<svg version="1.2" baseProfile="tiny-ps" xmlns="http://www.w3.org/2000/svg" viewBox="0 0 22 26" width="22" height="26">
	<title>Meet Discover – 2</title>
	<style>
		tspan { white-space:pre }
		.shp0 { fill: #b5b5b5 } 
	</style>
	<g id="Meet Discover – 2">
		<g id="Group 553">
			<g id="Group 552">
				<path id="icons8-party_baloons" class="shp0" d="M7.2 1C3.23 1 0 4.28 0 8.31C0 11.75 2.46 16.68 6 17.63L6 22.6C6 23.26 6.54 23.8 7.2 23.8C7.86 23.8 8.4 23.26 8.4 22.6L8.4 17.63C11.94 16.68 14.4 11.75 14.4 8.31C14.4 4.28 11.17 1 7.2 1ZM16.08 4.62C16.55 5.76 16.8 7.01 16.8 8.31C16.8 11.38 15.3 15.33 12.71 17.82C13.21 18.26 13.78 18.59 14.4 18.79L14.4 23.8C14.4 24.46 14.94 25 15.6 25C16.26 25 16.8 24.46 16.8 23.8L16.8 18.81C19.72 17.89 21.6 13.74 21.6 10.89C21.6 7.59 19.16 4.88 16.08 4.62Z" />
			</g>
		</g>
	</g>
</svg>