<svg version="1.2" baseProfile="tiny-ps" xmlns="http://www.w3.org/2000/svg" viewBox="0 0 22 25" width="22" height="25">
	<title>Meet Discover – 2</title>
	<style>
		tspan { white-space:pre }
		.shp0 { fill: #b5b5b5 } 
	</style>
	<g id="Meet Discover – 2">
		<g id="Group 553">
			<path id="icons8-test_passed" fill-rule="evenodd" class="shp0" d="M21.6 5.8L21.6 22.6C21.6 23.93 20.53 25 19.2 25L2.4 25C1.07 25 0 23.93 0 22.6L0 5.8C0 4.47 1.07 3.4 2.4 3.4L7.42 3.4C7.92 2 9.23 1 10.8 1C12.36 1 13.68 2 14.18 3.4L19.2 3.4C20.53 3.4 21.6 4.47 21.6 5.8ZM10.8 19C10.8 18.34 10.26 17.8 9.6 17.8L4.8 17.8C4.14 17.8 3.6 18.34 3.6 19C3.6 19.66 4.14 20.2 4.8 20.2L9.6 20.2C10.26 20.2 10.8 19.66 10.8 19ZM10.8 11.8C10.8 11.14 10.26 10.6 9.6 10.6L4.8 10.6C4.14 10.6 3.6 11.14 3.6 11.8C3.6 12.46 4.14 13 4.8 13L9.6 13C10.26 13 10.8 12.46 10.8 11.8ZM12 4.6C12 3.94 11.46 3.4 10.8 3.4C10.14 3.4 9.6 3.94 9.6 4.6C9.6 5.26 10.14 5.8 10.8 5.8C11.46 5.8 12 5.26 12 4.6ZM18.35 17.95C18.82 17.48 18.82 16.72 18.35 16.25C17.88 15.78 17.12 15.78 16.65 16.25L15.1 17.8L14.4 17.8C13.74 17.8 13.2 18.34 13.2 19C13.2 19.66 13.74 20.2 14.4 20.2L15.6 20.2C15.92 20.2 16.22 20.07 16.45 19.85L18.35 17.95ZM16.45 12.65L18.35 10.75C18.82 10.28 18.82 9.52 18.35 9.05C17.88 8.58 17.12 8.58 16.65 9.05L15.1 10.6L14.4 10.6C13.74 10.6 13.2 11.14 13.2 11.8C13.2 12.46 13.74 13 14.4 13L15.6 13C15.92 13 16.22 12.87 16.45 12.65Z" />
		</g>
	</g>
</svg>