<svg version="1.2" baseProfile="tiny-ps" xmlns="http://www.w3.org/2000/svg" viewBox="0 0 28 24" width="28" height="24">
	<title>Home</title>
	<style>
		tspan { white-space:pre }
		.shp0 { fill: #feae2a } 
	</style>
	<g id="Home">
		<g id="Group 553">
			<path id="icons8-a_home" class="shp0" d="M14.32 1C13.99 1 13.68 1.13 13.46 1.36L1.25 12.01C1.09 12.13 1 12.31 1 12.5C1 12.83 1.27 13.11 1.6 13.11L4.63 13.11L4.63 22.79C4.63 23.46 5.17 24 5.84 24L10.68 24C11.35 24 11.89 23.46 11.89 22.79L11.89 15.53L16.74 15.53L16.74 22.79C16.74 23.46 17.28 24 17.95 24L22.79 24C23.46 24 24 23.46 24 22.79L24 13.11L27.03 13.11C27.36 13.11 27.63 12.83 27.63 12.5C27.63 12.31 27.54 12.13 27.39 12.01L15.18 1.37C15.18 1.36 15.18 1.36 15.18 1.36C14.95 1.13 14.64 1 14.32 1Z" />
		</g>
	</g>
</svg>