<svg version="1.2" baseProfile="tiny-ps" xmlns="http://www.w3.org/2000/svg" viewBox="0 0 25 24" width="25" height="24">
	<title>Meet Discover – 2</title>
	<style>
		tspan { white-space:pre }
		.shp0 { fill: #b5b5b5 } 
	</style>
	<g id="Meet Discover – 2">
		<g id="Group 553">
			<g id="tennis-ball (1)">
				<g id="Group 551">
					<g id="Group 550">
						<path id="Path 1076" class="shp0" d="M11.87 0.05C9.19 0.3 6.57 1.45 4.51 3.51C2.45 5.57 1.29 8.19 1.04 10.88C3.99 11.22 7.13 12.73 9.7 15.3C12.27 17.87 13.78 21.01 14.12 23.96C16.81 23.71 19.43 22.55 21.49 20.49C23.55 18.44 24.7 15.81 24.95 13.13C22.01 12.79 18.87 11.28 16.3 8.71C13.72 6.13 12.22 3 11.87 0.05Z" />
						<path id="Path 1077" class="shp0" d="M25 11.94C24.91 8.91 23.71 5.91 21.4 3.6C19.09 1.29 16.09 0.09 13.06 0C13.4 2.64 14.8 5.49 17.16 7.84C19.51 10.2 22.35 11.6 25 11.94Z" />
						<path id="Path 1078" class="shp0" d="M1 12.07C1.09 15.09 2.29 18.09 4.6 20.4C6.91 22.71 9.91 23.91 12.93 24C12.59 21.36 11.19 18.52 8.84 16.16C6.48 13.81 3.64 12.41 1 12.07Z" />
					</g>
				</g>
			</g>
		</g>
	</g>
</svg>